<?xml version="1.0" encoding="utf-8"?>
<!-- Generator: Adobe Illustrator 18.1.1, SVG Export Plug-In . SVG Version: 6.00 Build 0)  -->
<svg version="1.1" id="Capa_1" xmlns="http://www.w3.org/2000/svg" xmlns:xlink="http://www.w3.org/1999/xlink" x="0px" y="0px"
	 viewBox="129 -128.5 457.5 457.5" enable-background="new 129 -128.5 457.5 457.5" xml:space="preserve">
<g>
	<path fill="#FFFFFF" d="M328.7,114.2c67,0,121.3-54.4,121.3-121.3c0-67-54.3-121.4-121.3-121.4c-67,0-121.3,54.4-121.3,121.4
		C207.4,59.8,261.6,114.2,328.7,114.2z"/>
	<path fill="#FFFFFF" d="M482,147.5c-6.4-13.7-14.5-27.5-24.8-40.7c-5.5-7.1-15.7-14.8-25.4-20.1c-25.4,28.4-62.1,46.4-103.1,46.4
		c-41,0-77.7-18-103-46.4c-9.6,5.4-19.4,13.2-24.8,20.2c-17.4,22.7-44.3,66.7-48.5,126c-0.9,12.5,5.1,31.6,15.5,38.9
		c19.9,13.9,62.7,31.7,151.8,31.7c30.9,0,56.9-1.9,78.9-4.9c-8.9-15-14.1-32.4-14.1-51C384.4,193.3,428,149,482,147.5z"/>
	<path fill="#FFFFFF" d="M482,166.4c-44.9,0-81.3,36.4-81.3,81.3S437.1,329,482,329s81.3-36.4,81.3-81.3
		C563.3,202.8,526.9,166.4,482,166.4z M522.1,262.7h-31.4V294c0,5.2-4.2,9.4-9.4,9.4s-9.4-4.2-9.4-9.4v-31.4l-31.4,0
		c-5.2,0-9.4-4.2-9.4-9.4c0-5.2,4.2-9.4,9.4-9.4H472v-31.4c0-5.2,4.2-9.4,9.4-9.4c5.2,0,9.4,4.2,9.4,9.4v31.3h31.3
		c5.2,0,9.4,4.2,9.4,9.4C531.5,258.5,527.3,262.7,522.1,262.7z"/>
</g>
</svg>
