<?xml version="1.0" encoding="utf-8"?>
<!-- Generator: Adobe Illustrator 18.1.1, SVG Export Plug-In . SVG Version: 6.00 Build 0)  -->
<svg version="1.1" id="Layer_1" xmlns="http://www.w3.org/2000/svg" xmlns:xlink="http://www.w3.org/1999/xlink" x="0px" y="0px"
	 viewBox="0 0 200 200" enable-background="new 0 0 200 200" xml:space="preserve">
<path fill="#FFFFFF" d="M49.8,13.4C65.2,4.5,81.9,0,100,0c18.1,0,34.8,4.5,50.2,13.4c15.4,8.9,27.5,21.1,36.4,36.4
	s13.4,32.1,13.4,50.2s-4.5,34.8-13.4,50.2c-8.9,15.4-21.1,27.5-36.4,36.4c-15.4,8.9-32.1,13.4-50.2,13.4c-18.1,0-34.8-4.5-50.2-13.4
	c-15.4-8.9-27.5-21.1-36.4-36.4C4.4,134.9,0,118.1,0,100s4.5-34.8,13.4-50.2C22.3,34.5,34.5,22.3,49.8,13.4z M66.5,83.3V100h16.8
	v33.5H66.5v16.8h67v-16.8h-16.8V83.3H66.5z M83.3,49.8v16.8h33.5V49.8H83.3z"/>
</svg>
