<?xml version="1.0" encoding="utf-8"?>
<!-- Generator: Adobe Illustrator 16.0.0, SVG Export Plug-In . SVG Version: 6.00 Build 0)  -->
<!DOCTYPE svg PUBLIC "-//W3C//DTD SVG 1.1//EN" "http://www.w3.org/Graphics/SVG/1.1/DTD/svg11.dtd">
<svg version="1.1" id="Capa_1" xmlns="http://www.w3.org/2000/svg" xmlns:xlink="http://www.w3.org/1999/xlink" x="0px" y="0px"
	 width="300px" height="109.743px" viewBox="0 0 300 109.743" enable-background="new 0 0 300 109.743" xml:space="preserve">
<path fill="#5586C5" d="M8.446,0l33.62,4.973v4.263c0,0-26.518,9.942-29.833,17.281l27.701,6.628v3.078L22.178,46.881l-2.13,3.549
	l10.889,8.05l11.129-3.55v54.926H8.446V0z"/>
<polygon fill="#C32526" points="38.04,13.496 23.599,22.021 65.74,26.992 26.438,48.538 54.139,54.93 35.636,67.952 49.166,77.657 
	62.662,67.715 53.901,59.19 67.635,50.67 67.635,45.577 47.748,41.199 62.662,36.223 87.523,18.705 "/>
<rect x="-0.551" y="0.002" fill="#2C2E5D" width="6.392" height="109.854"/>
<path fill="#2C2E5D" d="M164.201,64.234c0-1.901-0.064-3.432-0.125-4.839h2.421l0.124,2.541h0.06c1.104-1.808,2.85-2.88,5.269-2.88
	c3.586,0,6.283,3.033,6.283,7.538c0,5.329-3.25,7.963-6.742,7.963c-1.959,0-3.676-0.858-4.563-2.325h-0.061v8.053h-2.664V64.234z
	 M166.865,68.186c0,0.395,0.061,0.766,0.12,1.1c0.493,1.87,2.115,3.157,4.045,3.157c2.851,0,4.505-2.328,4.505-5.729
	c0-2.97-1.564-5.514-4.414-5.514c-1.836,0-3.552,1.317-4.07,3.336c-0.095,0.341-0.186,0.738-0.186,1.105V68.186z"/>
<path fill="#2C2E5D" d="M181.631,64.017c0-1.743-0.029-3.246-0.123-4.623h2.357l0.096,2.906h0.122
	c0.674-1.991,2.297-3.246,4.104-3.246c0.308,0,0.521,0.032,0.767,0.09v2.545c-0.278-0.064-0.552-0.091-0.919-0.091
	c-1.9,0-3.249,1.439-3.615,3.463c-0.059,0.362-0.124,0.793-0.124,1.255v7.9h-2.665V64.017z"/>
<path fill="#2C2E5D" d="M204.765,66.683c0,5.483-3.801,7.872-7.383,7.872c-4.016,0-7.11-2.941-7.11-7.628
	c0-4.962,3.248-7.873,7.353-7.873C201.88,59.055,204.765,62.147,204.765,66.683 M192.999,66.837c0,3.246,1.869,5.699,4.503,5.699
	c2.574,0,4.505-2.422,4.505-5.763c0-2.513-1.257-5.7-4.441-5.7C194.378,61.074,192.999,64.017,192.999,66.837"/>
<rect x="208.163" y="52.467" fill="#2C2E5D" width="2.694" height="21.75"/>
<path fill="#2C2E5D" d="M218.396,55.224c0.031,0.92-0.642,1.658-1.715,1.658c-0.948,0-1.622-0.738-1.622-1.658
	c0-0.95,0.703-1.684,1.687-1.684C217.755,53.54,218.396,54.274,218.396,55.224 M215.396,59.39h2.694v14.828h-2.694V59.39z"/>
<path fill="#2C2E5D" d="M222.443,74.217c0.063-1.011,0.124-2.509,0.124-3.826V52.467h2.663v9.318h0.062
	c0.95-1.658,2.667-2.731,5.055-2.731c3.679,0,6.281,3.066,6.247,7.566c0,5.301-3.336,7.935-6.646,7.935
	c-2.146,0-3.862-0.828-4.963-2.787h-0.092l-0.122,2.449H222.443z M225.23,68.277c0,0.335,0.062,0.675,0.124,0.978
	c0.521,1.87,2.08,3.156,4.042,3.156c2.818,0,4.503-2.296,4.503-5.696c0-2.97-1.529-5.514-4.407-5.514
	c-1.841,0-3.556,1.254-4.108,3.31c-0.062,0.304-0.153,0.671-0.153,1.1V68.277z"/>
<path fill="#2C2E5D" d="M241.498,67.294c0.063,3.646,2.389,5.148,5.088,5.148c1.931,0,3.094-0.336,4.105-0.767l0.46,1.929
	c-0.95,0.432-2.575,0.92-4.933,0.92c-4.566,0-7.292-3.002-7.292-7.474c0-4.475,2.635-7.997,6.954-7.997
	c4.841,0,6.128,4.256,6.128,6.986c0,0.549-0.062,0.982-0.092,1.254H241.498z M249.406,65.366c0.029-1.716-0.709-4.383-3.737-4.383
	c-2.729,0-3.924,2.513-4.136,4.383H249.406z"/>
<path fill="#2C2E5D" d="M255.35,64.017c0-1.743-0.031-3.246-0.122-4.623h2.357l0.09,2.906h0.125
	c0.675-1.991,2.295-3.246,4.106-3.246c0.306,0,0.519,0.032,0.766,0.09v2.545c-0.276-0.064-0.551-0.091-0.92-0.091
	c-1.899,0-3.246,1.439-3.618,3.463c-0.06,0.362-0.119,0.793-0.119,1.255v7.9h-2.665V64.017z"/>
<path fill="#2C2E5D" d="M269.35,55.134v4.26h3.86v2.051h-3.86v7.995c0,1.838,0.523,2.879,2.023,2.879
	c0.704,0,1.226-0.09,1.562-0.181l0.122,2.02c-0.521,0.213-1.348,0.366-2.391,0.366c-1.254,0-2.266-0.398-2.908-1.132
	c-0.763-0.798-1.043-2.114-1.043-3.862v-8.085h-2.296v-2.051h2.296V55.84L269.35,55.134z"/>
<path fill="#2C2E5D" d="M284.455,74.221l-0.214-1.869h-0.095c-0.828,1.163-2.421,2.203-4.533,2.203
	c-3.001,0-4.533-2.112-4.533-4.259c0-3.582,3.186-5.541,8.914-5.514v-0.305c0-1.226-0.336-3.432-3.372-3.432
	c-1.376,0-2.815,0.43-3.859,1.105l-0.609-1.779c1.224-0.797,2.999-1.318,4.869-1.318c4.535,0,5.636,3.097,5.636,6.068v5.545
	c0,1.286,0.061,2.539,0.245,3.554H284.455z M284.057,66.651c-2.945-0.059-6.279,0.463-6.279,3.342c0,1.743,1.16,2.572,2.541,2.572
	c1.932,0,3.153-1.224,3.583-2.481c0.093-0.275,0.155-0.58,0.155-0.855V66.651z"/>
<path fill="#2C2E5D" d="M290.644,71.464c0.797,0.517,2.205,1.072,3.554,1.072c1.96,0,2.88-0.981,2.88-2.209
	c0-1.285-0.765-1.992-2.756-2.725c-2.669-0.952-3.923-2.422-3.923-4.198c0-2.39,1.933-4.35,5.117-4.35
	c1.501,0,2.817,0.43,3.645,0.919l-0.672,1.961c-0.584-0.367-1.658-0.861-3.035-0.861c-1.591,0-2.478,0.924-2.478,2.023
	c0,1.228,0.887,1.78,2.812,2.513c2.574,0.979,3.892,2.27,3.892,4.474c0,2.604-2.021,4.441-5.541,4.441
	c-1.627,0-3.126-0.398-4.17-1.01L290.644,71.464z"/>
<polygon fill="#5586C5" points="83.557,33.729 91.231,33.729 91.231,35.268 85.398,35.268 85.398,40.003 90.787,40.003 
	90.787,41.53 85.398,41.53 85.398,47.976 83.557,47.976 "/>
<path fill="#5586C5" d="M95.693,33.729v8.43c0,3.196,1.415,4.546,3.319,4.546c2.112,0,3.466-1.395,3.466-4.546v-8.43h1.858v8.303
	c0,4.378-2.305,6.175-5.391,6.175c-2.915,0-5.115-1.67-5.115-6.089v-8.389H95.693z"/>
<path fill="#5586C5" d="M107.53,47.976V33.729h2.008l4.568,7.207c1.055,1.671,1.882,3.169,2.556,4.631l0.04-0.022
	c-0.165-1.902-0.207-3.64-0.207-5.853v-5.963h1.731v14.247h-1.859l-4.522-7.23c-0.993-1.584-1.945-3.214-2.665-4.759l-0.062,0.023
	c0.106,1.797,0.147,3.508,0.147,5.875v6.09H107.53z"/>
<path fill="#5586C5" d="M121.439,33.919c1.123-0.172,2.453-0.299,3.913-0.299c2.643,0,4.522,0.616,5.77,1.778
	c1.268,1.16,2.007,2.812,2.007,5.112c0,2.327-0.717,4.229-2.048,5.537c-1.333,1.335-3.532,2.055-6.3,2.055
	c-1.311,0-2.409-0.067-3.342-0.171V33.919z M123.28,46.515c0.466,0.085,1.14,0.108,1.861,0.108c3.929,0,6.063-2.201,6.063-6.044
	c0.023-3.364-1.879-5.496-5.77-5.496c-0.948,0-1.668,0.086-2.155,0.19V46.515z"/>
<path fill="#5586C5" d="M137.528,43.495l-1.481,4.481h-1.901l4.842-14.247h2.221l4.86,14.247h-1.965l-1.523-4.481H137.528z
	 M142.2,42.055l-1.396-4.102c-0.317-0.928-0.525-1.775-0.738-2.599h-0.043c-0.212,0.847-0.443,1.711-0.717,2.581l-1.396,4.121H142.2
	z"/>
<path fill="#5586C5" d="M157.801,47.51c-0.676,0.339-2.028,0.674-3.762,0.674c-4.018,0-7.04-2.535-7.04-7.207
	c0-4.459,3.022-7.483,7.44-7.483c1.774,0,2.895,0.38,3.382,0.638l-0.446,1.499c-0.695-0.339-1.689-0.593-2.872-0.593
	c-3.339,0-5.561,2.137-5.561,5.877c0,3.485,2.011,5.727,5.477,5.727c1.118,0,2.261-0.231,3.002-0.588L157.801,47.51z"/>
<rect x="160.105" y="33.729" fill="#5586C5" width="1.84" height="14.247"/>
<path fill="#5586C5" d="M173.91,30.451l-2.685,2.45h-1.524l1.968-2.45H173.91z M177.333,40.701c0,4.908-2.977,7.501-6.614,7.501
	c-3.762,0-6.404-2.915-6.404-7.225c0-4.522,2.812-7.483,6.615-7.483C174.817,33.494,177.333,36.477,177.333,40.701 M166.279,40.936
	c0,3.042,1.647,5.769,4.545,5.769c2.917,0,4.566-2.685,4.566-5.918c0-2.833-1.48-5.791-4.545-5.791
	C167.802,34.996,166.279,37.808,166.279,40.936"/>
<path fill="#5586C5" d="M179.725,47.976V33.729h2.008l4.565,7.207c1.058,1.671,1.881,3.169,2.556,4.631l0.043-0.022
	c-0.167-1.902-0.208-3.64-0.208-5.853v-5.963h1.729v14.247h-1.859l-4.522-7.23c-0.994-1.584-1.944-3.214-2.664-4.759l-0.064,0.023
	c0.107,1.797,0.15,3.508,0.15,5.875v6.09H179.725z"/>
</svg>
