<?xml version="1.0" encoding="utf-8"?>
<!-- Generator: Adobe Illustrator 18.1.1, SVG Export Plug-In . SVG Version: 6.00 Build 0)  -->
<svg version="1.1" id="Capa_1" xmlns="http://www.w3.org/2000/svg" xmlns:xlink="http://www.w3.org/1999/xlink" x="0px" y="0px"
	 viewBox="0 0 150 51.9" enable-background="new 0 0 150 51.9" xml:space="preserve">
<path fill="#FFFFFF" d="M15.2,4.5l14.5,2.1v1.8c0,0-11.4,4.3-12.9,7.5l12,2.9v1.3l-7.7,4.6l-0.9,1.5l4.7,3.5l4.8-1.5v23.7H15.2V4.5z
	"/>
<polygon fill="#FFFFFF" points="28,10.4 21.8,14 39.9,16.2 23,25.5 34.9,28.2 27,33.8 32.8,38 38.6,33.7 34.8,30.1 40.8,26.4 
	40.8,24.2 32.2,22.3 38.6,20.2 49.3,12.6 "/>
<rect x="11.4" y="4.5" fill="#FFFFFF" width="2.8" height="47.4"/>
<g>
	<path fill="#FFFFFF" d="M82.4,32.2c0-0.8,0-1.5-0.1-2.1h1l0.1,1.1h0c0.5-0.8,1.2-1.2,2.3-1.2c1.5,0,2.7,1.3,2.7,3.3
		c0,2.3-1.4,3.4-2.9,3.4c-0.8,0-1.6-0.4-2-1h0v3.5h-1.1V32.2z M83.6,33.9c0,0.2,0,0.3,0.1,0.5c0.2,0.8,0.9,1.4,1.7,1.4
		c1.2,0,1.9-1,1.9-2.5c0-1.3-0.7-2.4-1.9-2.4c-0.8,0-1.5,0.6-1.8,1.4c0,0.1-0.1,0.3-0.1,0.5V33.9z"/>
	<path fill="#FFFFFF" d="M89.9,32.2c0-0.8,0-1.4-0.1-2h1l0,1.3H91c0.3-0.9,1-1.4,1.8-1.4c0.1,0,0.2,0,0.3,0v1.1c-0.1,0-0.2,0-0.4,0
		c-0.8,0-1.4,0.6-1.6,1.5c0,0.2-0.1,0.3-0.1,0.5v3.4h-1.1V32.2z"/>
	<path fill="#FFFFFF" d="M99.9,33.3c0,2.4-1.6,3.4-3.2,3.4c-1.7,0-3.1-1.3-3.1-3.3c0-2.1,1.4-3.4,3.2-3.4
		C98.7,30,99.9,31.3,99.9,33.3z M94.8,33.4c0,1.4,0.8,2.5,1.9,2.5c1.1,0,1.9-1,1.9-2.5c0-1.1-0.5-2.5-1.9-2.5
		C95.4,30.9,94.8,32.2,94.8,33.4z"/>
	<path fill="#FFFFFF" d="M101.4,27.2h1.2v9.4h-1.2V27.2z"/>
	<path fill="#FFFFFF" d="M105.8,28.4c0,0.4-0.3,0.7-0.7,0.7c-0.4,0-0.7-0.3-0.7-0.7c0-0.4,0.3-0.7,0.7-0.7
		C105.5,27.6,105.8,27.9,105.8,28.4z M104.5,36.6v-6.4h1.2v6.4H104.5z"/>
	<path fill="#FFFFFF" d="M107.6,36.6c0-0.4,0.1-1.1,0.1-1.7v-7.7h1.1v4h0c0.4-0.7,1.1-1.2,2.2-1.2c1.6,0,2.7,1.3,2.7,3.3
		c0,2.3-1.4,3.4-2.9,3.4c-0.9,0-1.7-0.4-2.1-1.2h0l-0.1,1.1H107.6z M108.8,34c0,0.1,0,0.3,0.1,0.4c0.2,0.8,0.9,1.4,1.7,1.4
		c1.2,0,1.9-1,1.9-2.5c0-1.3-0.7-2.4-1.9-2.4c-0.8,0-1.5,0.5-1.8,1.4c0,0.1-0.1,0.3-0.1,0.5V34z"/>
	<path fill="#FFFFFF" d="M115.8,33.6c0,1.6,1,2.2,2.2,2.2c0.8,0,1.3-0.1,1.8-0.3l0.2,0.8c-0.4,0.2-1.1,0.4-2.1,0.4
		c-2,0-3.1-1.3-3.1-3.2s1.1-3.4,3-3.4c2.1,0,2.6,1.8,2.6,3c0,0.2,0,0.4,0,0.5H115.8z M119.2,32.7c0-0.7-0.3-1.9-1.6-1.9
		c-1.2,0-1.7,1.1-1.8,1.9H119.2z"/>
	<path fill="#FFFFFF" d="M121.7,32.2c0-0.8,0-1.4-0.1-2h1l0,1.3h0.1c0.3-0.9,1-1.4,1.8-1.4c0.1,0,0.2,0,0.3,0v1.1
		c-0.1,0-0.2,0-0.4,0c-0.8,0-1.4,0.6-1.6,1.5c0,0.2-0.1,0.3-0.1,0.5v3.4h-1.1V32.2z"/>
	<path fill="#FFFFFF" d="M127.8,28.3v1.8h1.7V31h-1.7v3.4c0,0.8,0.2,1.2,0.9,1.2c0.3,0,0.5,0,0.7-0.1l0.1,0.9
		c-0.2,0.1-0.6,0.2-1,0.2c-0.5,0-1-0.2-1.3-0.5c-0.3-0.3-0.4-0.9-0.4-1.7V31h-1v-0.9h1v-1.5L127.8,28.3z"/>
	<path fill="#FFFFFF" d="M134.3,36.6l-0.1-0.8h0c-0.4,0.5-1,1-2,1c-1.3,0-2-0.9-2-1.8c0-1.5,1.4-2.4,3.8-2.4v-0.1
		c0-0.5-0.1-1.5-1.5-1.5c-0.6,0-1.2,0.2-1.7,0.5l-0.3-0.8c0.5-0.3,1.3-0.6,2.1-0.6c2,0,2.4,1.3,2.4,2.6V35c0,0.6,0,1.1,0.1,1.5
		H134.3z M134.1,33.3c-1.3,0-2.7,0.2-2.7,1.4c0,0.8,0.5,1.1,1.1,1.1c0.8,0,1.4-0.5,1.5-1.1c0-0.1,0.1-0.3,0.1-0.4V33.3z"/>
	<path fill="#FFFFFF" d="M137,35.4c0.3,0.2,1,0.5,1.5,0.5c0.8,0,1.2-0.4,1.2-1c0-0.6-0.3-0.9-1.2-1.2c-1.2-0.4-1.7-1-1.7-1.8
		c0-1,0.8-1.9,2.2-1.9c0.6,0,1.2,0.2,1.6,0.4l-0.3,0.8c-0.3-0.2-0.7-0.4-1.3-0.4c-0.7,0-1.1,0.4-1.1,0.9c0,0.5,0.4,0.8,1.2,1.1
		c1.1,0.4,1.7,1,1.7,1.9c0,1.1-0.9,1.9-2.4,1.9c-0.7,0-1.3-0.2-1.8-0.4L137,35.4z"/>
</g>
<g>
	<path fill="#FFFFFF" d="M47.6,19.1h3.3v0.7h-2.5v2h2.3v0.7h-2.3v2.8h-0.8V19.1z"/>
	<path fill="#FFFFFF" d="M52.9,19.1v3.6c0,1.4,0.6,2,1.4,2c0.9,0,1.5-0.6,1.5-2v-3.6h0.8v3.6c0,1.9-1,2.7-2.3,2.7
		c-1.3,0-2.2-0.7-2.2-2.6v-3.6H52.9z"/>
	<path fill="#FFFFFF" d="M58,25.2v-6.1h0.9l2,3.1c0.5,0.7,0.8,1.4,1.1,2l0,0c-0.1-0.8-0.1-1.6-0.1-2.5v-2.6h0.7v6.1h-0.8l-2-3.1
		c-0.4-0.7-0.8-1.4-1.1-2.1l0,0c0,0.8,0.1,1.5,0.1,2.5v2.6H58z"/>
	<path fill="#FFFFFF" d="M64,19.2c0.5-0.1,1.1-0.1,1.7-0.1c1.1,0,2,0.3,2.5,0.8C68.7,20.3,69,21,69,22c0,1-0.3,1.8-0.9,2.4
		c-0.6,0.6-1.5,0.9-2.7,0.9c-0.6,0-1,0-1.4-0.1V19.2z M64.8,24.6c0.2,0,0.5,0,0.8,0c1.7,0,2.6-0.9,2.6-2.6c0-1.5-0.8-2.4-2.5-2.4
		c-0.4,0-0.7,0-0.9,0.1V24.6z"/>
	<path fill="#FFFFFF" d="M70.9,23.3l-0.6,1.9h-0.8l2.1-6.1h1l2.1,6.1h-0.8l-0.7-1.9H70.9z M72.9,22.7l-0.6-1.8
		c-0.1-0.4-0.2-0.8-0.3-1.1h0c-0.1,0.4-0.2,0.7-0.3,1.1l-0.6,1.8H72.9z"/>
	<path fill="#FFFFFF" d="M79.7,25c-0.3,0.1-0.9,0.3-1.6,0.3c-1.7,0-3-1.1-3-3.1c0-1.9,1.3-3.2,3.2-3.2c0.8,0,1.2,0.2,1.5,0.3
		l-0.2,0.6c-0.3-0.1-0.7-0.3-1.2-0.3c-1.4,0-2.4,0.9-2.4,2.5c0,1.5,0.9,2.5,2.4,2.5c0.5,0,1-0.1,1.3-0.3L79.7,25z"/>
	<path fill="#FFFFFF" d="M81.5,19.1v6.1h-0.8v-6.1H81.5z"/>
	<path fill="#FFFFFF" d="M86.6,17.7l-1.2,1.1h-0.7l0.8-1.1H86.6z M88.1,22.1c0,2.1-1.3,3.2-2.9,3.2c-1.6,0-2.8-1.3-2.8-3.1
		c0-2,1.2-3.2,2.9-3.2C87,19,88.1,20.3,88.1,22.1z M83.3,22.2c0,1.3,0.7,2.5,2,2.5c1.3,0,2-1.2,2-2.6c0-1.2-0.6-2.5-2-2.5
		C84,19.6,83.3,20.8,83.3,22.2z"/>
	<path fill="#FFFFFF" d="M89.1,25.2v-6.1H90l2,3.1c0.5,0.7,0.8,1.4,1.1,2l0,0C93,23.4,93,22.6,93,21.7v-2.6h0.7v6.1h-0.8l-2-3.1
		c-0.4-0.7-0.8-1.4-1.1-2.1l0,0c0,0.8,0.1,1.5,0.1,2.5v2.6H89.1z"/>
</g>
</svg>
