<?xml version="1.0" encoding="iso-8859-1"?>
<!-- Generator: Adobe Illustrator 18.1.1, SVG Export Plug-In . SVG Version: 6.00 Build 0)  -->
<svg version="1.1" id="Capa_1" xmlns="http://www.w3.org/2000/svg" xmlns:xlink="http://www.w3.org/1999/xlink" x="0px" y="0px"
	 viewBox="0 0 284.999 284.999" style="enable-background:new 0 0 284.999 284.999;" xml:space="preserve">
<g>
	<g>
		<path d="M246.158,153.932H38.84c-7.354,0-13.316,5.962-13.316,13.316c0,7.351,5.962,13.307,13.316,13.307h207.318
			c7.354,0,13.316-5.956,13.316-13.307C259.475,159.894,253.512,153.932,246.158,153.932z"/>
		<path d="M59.56,225.095c-5.517,0-9.982,4.469-9.982,9.979v3.331c0,5.517,4.465,9.985,9.982,9.985c5.523,0,9.989-4.469,9.989-9.985
			v-3.331C69.549,229.564,65.082,225.095,59.56,225.095z"/>
		<path d="M59.56,188.48c-5.517,0-9.982,4.475-9.982,9.986v3.327c0,5.52,4.465,9.989,9.982,9.989c5.523,0,9.989-4.469,9.989-9.989
			v-3.327C69.549,192.956,65.082,188.48,59.56,188.48z"/>
		<path d="M59.56,261.707c-5.517,0-9.982,4.468-9.982,9.979v3.328c0,5.52,4.465,9.985,9.982,9.985c5.523,0,9.989-4.465,9.989-9.985
			v-3.328C69.549,266.175,65.082,261.707,59.56,261.707z"/>
		<path d="M101.029,225.095c-5.517,0-9.989,4.469-9.989,9.979v3.331c0,5.517,4.472,9.985,9.989,9.985s9.989-4.469,9.989-9.985
			v-3.331C111.018,229.564,106.546,225.095,101.029,225.095z"/>
		<path d="M101.029,261.707c-5.517,0-9.989,4.468-9.989,9.979v3.328c0,5.52,4.472,9.985,9.989,9.985s9.989-4.465,9.989-9.985v-3.328
			C111.018,266.175,106.546,261.707,101.029,261.707z"/>
		<path d="M101.029,188.48c-5.517,0-9.989,4.475-9.989,9.986v3.327c0,5.52,4.472,9.989,9.989,9.989s9.989-4.469,9.989-9.989v-3.327
			C111.018,192.956,106.546,188.48,101.029,188.48z"/>
		<path d="M142.499,261.707c-5.517,0-9.982,4.468-9.982,9.979v3.328c0,5.52,4.465,9.985,9.982,9.985s9.982-4.465,9.982-9.985v-3.328
			C152.481,266.175,148.016,261.707,142.499,261.707z"/>
		<path d="M142.499,225.095c-5.517,0-9.982,4.469-9.982,9.979v3.331c0,5.517,4.465,9.985,9.982,9.985s9.982-4.469,9.982-9.985
			v-3.331C152.481,229.564,148.016,225.095,142.499,225.095z"/>
		<path d="M142.499,188.48c-5.517,0-9.982,4.475-9.982,9.986v3.327c0,5.52,4.465,9.989,9.982,9.989s9.982-4.469,9.982-9.989v-3.327
			C152.481,192.956,148.016,188.48,142.499,188.48z"/>
		<path d="M183.969,188.48c-5.517,0-9.989,4.475-9.989,9.986v3.327c0,5.52,4.472,9.989,9.989,9.989s9.989-4.469,9.989-9.989v-3.327
			C193.957,192.956,189.486,188.48,183.969,188.48z"/>
		<path d="M183.969,261.707c-5.517,0-9.989,4.468-9.989,9.979v3.328c0,5.52,4.472,9.985,9.989,9.985s9.989-4.465,9.989-9.985v-3.328
			C193.957,266.175,189.486,261.707,183.969,261.707z"/>
		<path d="M183.969,225.095c-5.517,0-9.989,4.469-9.989,9.979v3.331c0,5.517,4.472,9.985,9.989,9.985s9.989-4.469,9.989-9.985
			v-3.331C193.957,229.564,189.486,225.095,183.969,225.095z"/>
		<path d="M225.438,225.095c-5.523,0-9.989,4.469-9.989,9.979v3.331c0,5.517,4.466,9.985,9.989,9.985
			c5.517,0,9.982-4.469,9.982-9.985v-3.331C235.421,229.564,230.956,225.095,225.438,225.095z"/>
		<path d="M225.438,261.707c-5.523,0-9.989,4.468-9.989,9.979v3.328c0,5.52,4.466,9.985,9.989,9.985
			c5.517,0,9.982-4.465,9.982-9.985v-3.328C235.421,266.175,230.956,261.707,225.438,261.707z"/>
		<path d="M225.438,188.48c-5.523,0-9.989,4.475-9.989,9.986v3.327c0,5.52,4.466,9.989,9.989,9.989c5.517,0,9.982-4.469,9.982-9.989
			v-3.327C235.421,192.956,230.956,188.48,225.438,188.48z"/>
		<path d="M59.293,142.682h166.411c3.674,0,6.661-2.978,6.661-6.658c0-45.948-34.697-83.895-79.253-89.171
			c2.932-15.286,16.365-26.879,32.496-26.879h25.327c5.511,0,9.989-4.475,9.989-9.985c0-5.52-4.478-9.989-9.989-9.989h-25.327
			c-27.115,0-49.492,20.432-52.671,46.693c-45.075,4.793-80.305,43.019-80.305,89.332C52.632,139.704,55.62,142.682,59.293,142.682z
			"/>
	</g>
</g>
<g>
</g>
<g>
</g>
<g>
</g>
<g>
</g>
<g>
</g>
<g>
</g>
<g>
</g>
<g>
</g>
<g>
</g>
<g>
</g>
<g>
</g>
<g>
</g>
<g>
</g>
<g>
</g>
<g>
</g>
</svg>
